Coordinates
version=1
nRows=9
nColumns=36
inDegrees=yes

Units are S.I. units (second, meters, Newtons, ...)
If the header above contains a line with 'inDegrees', this indicates whether rotational values are in degrees (yes) or radians (no).

endheader
time	pelvis_tilt	pelvis_list	pelvis_rotation	pelvis_tx	pelvis_ty	pelvis_tz	hip_flexion_r	hip_adduction_r	hip_rotation_r	knee_angle_r	knee_angle_r_beta	ankle_angle_r	subtalar_angle_r	mtp_angle_r	hip_flexion_l	hip_adduction_l	hip_rotation_l	knee_angle_l	knee_angle_l_beta	ankle_angle_l	subtalar_angle_l	mtp_angle_l	lumbar_extension	lumbar_bending	lumbar_rotation	arm_flex_r	arm_add_r	arm_rot_r	elbow_flex_r	pro_sup_r	arm_flex_l	arm_add_l	arm_rot_l	elbow_flex_l	pro_sup_l
      1.38333330	      3.87000640	     -1.18432806	      4.59532044	      0.38341013	      1.30086059	     -0.25514663	     -3.35856102	      1.34759772	      3.24934504	      9.14536868	      0.15961679	     14.96507487	     -5.92186066	     -7.49999987	     -5.99695050	     -2.89826913	     -6.15626750	      4.28628016	      0.07480970	     11.23298489	     -8.98492959	     -7.49999987	    -20.22855316	      0.89974012	      3.78761781	    -13.54436521	    -22.41704681	     65.87327340	     20.80933963	     71.77488061	    -11.35604287	    -22.35470373	     26.35456924	     14.97038759	    100.14916847
      1.40000000	      3.71317889	     -1.17094412	      4.47849305	      0.38254822	      1.29293341	     -0.25539554	     -2.48723846	      1.27560508	      3.23060947	     10.31805484	      0.18008403	     15.68729471	     -5.72357283	     -7.49999987	     -5.35565684	     -2.79392630	     -6.07216342	      4.96543722	      0.08666323	     11.80007987	     -9.38780022	     -7.49999987	    -22.42401079	      0.51569619	      2.80329875	    -11.91306675	    -25.55279112	     81.20367115	     26.10929880	     58.39111652	    -14.11716142	    -24.89548442	     41.53814417	     18.93278036	     89.99788145
      1.41666670	      3.47419354	     -1.04149681	      4.38892485	      0.37580334	      1.29407939	     -0.25805845	     -1.32168211	      1.01008670	      3.09097958	     11.85163204	      0.20685000	     16.67033062	     -5.41653132	     -7.49999987	     -4.48731595	     -2.56004895	     -6.01278395	      5.89033962	      0.10280582	     12.49392920	     -9.81005954	     -7.49999987	    -24.53287866	      0.20779343	      2.80556284	    -11.22147113	    -28.00678196	     89.52483920	     31.12458460	     49.47088188	    -14.41653988	    -27.66641497	     60.57228602	     22.87164939	     74.75480649
      1.43333330	      3.35459111	     -0.98996358	      4.35034050	      0.37512000	      1.29562030	     -0.25185963	     -0.40990081	      0.89606613	      3.07234329	     13.17059708	      0.22987028	     17.55707481	     -5.04740213	     -7.49999987	     -3.69547503	     -2.47358114	     -5.92686009	      6.94753475	      0.12125736	     13.00950959	    -10.40171660	     -7.49999987	    -26.51349958	     -0.04646684	      3.93343649	    -12.01407440	    -29.63107408	     94.17966831	     34.82074028	     42.43767667	    -12.75560169	    -29.97348506	     77.75456084	     26.22477365	     61.95758896
      1.45000000	      3.05197704	     -0.79963338	      4.32141495	      0.36708220	      1.28702069	     -0.25475577	      1.27868757	      0.60345168	      3.05251386	     15.49639101	      0.27046305	     18.67443442	     -5.03178321	     -7.49999987	     -2.27707577	     -2.25101647	     -5.52984387	      8.67398846	      0.15138966	     13.92492541	    -11.12123261	     -7.49999987	    -29.06669388	     -0.63116136	      3.95237732	    -12.88063045	    -31.00066740	     94.14338067	     36.95041433	     44.49205815	    -14.07187251	    -30.97225252	     78.53275956	     28.51539896	     61.50877718
      1.46666670	      2.73579444	     -0.59733006	      4.30175446	      0.36661208	      1.28854503	     -0.25498980	      2.91874713	      0.23590801	      2.75215994	     17.80771969	      0.31080334	     20.07035386	     -4.44251187	     -7.49999987	     -0.92934812	     -2.03716191	     -5.52596137	     10.33656234	      0.18040705	     14.74287731	    -11.66083546	     -7.49999987	    -31.09467559	     -1.03596052	      5.13989231	    -13.86917771	    -31.59873423	     96.54891573	     38.79817233	     41.50945935	    -11.38022126	    -31.79544574	     91.92355569	     30.01709271	     55.25026022
      1.48333330	      3.07024128	     -0.50934804	      4.15087698	      0.37415579	      1.28688898	     -0.25119643	      3.26007846	      0.16513447	      2.91842368	     18.98688178	      0.33138360	     21.10945256	     -4.30664295	     -7.49999987	     -0.69654595	     -1.94029107	     -5.39228460	     11.51216025	      0.20092510	     15.26812762	    -12.20400660	     -7.49999987	    -33.69124195	     -1.41460004	      5.05253599	    -14.71846668	    -31.79869529	     96.66226487	     39.05283524	     41.49986892	    -12.11837268	    -31.96337346	     92.27354687	     30.44102254	     55.02059715
      1.50000000	      3.25101193	     -0.32326116	      4.14799438	      0.37259445	      1.28562814	     -0.25183442	      3.95178479	     -0.17807048	      2.28421355	     20.71595147	      0.36156156	     22.88138783	     -2.89574135	     -7.49999987	     -0.18316136	     -1.72129203	     -4.97775963	     12.93530661	      0.22576369	     15.83220799	    -12.89439464	     -7.49999987	    -36.03551901	     -1.60458754	      4.75881251	    -16.00379738	    -31.34845210	     95.69110820	     38.49113199	     42.16718647	    -12.20881533	    -32.10136350	     93.31470277	     31.21528821	     53.18161085
      1.51666670	      3.61202575	     -0.23481107	      3.92765083	      0.37191321	      1.28407845	     -0.25151728	      4.49965419	     -0.31042882	      2.35558245	     22.49282984	      0.39257394	     24.07422973	     -2.58866676	     -7.49999987	      0.25564360	     -1.63604466	     -4.69835522	     14.60924942	      0.25497950	     16.69869761	    -13.35715199	     -7.49999987	    -38.39031351	     -1.58822347	      5.41771361	    -18.51116952	    -30.06773377	     91.36248182	     36.36479474	     44.94789115	    -10.40624752	    -31.72034907	    100.66469555	     30.91884077	     41.50670901
